# xmcd
#
# Track frame offsets: 
#        150
#        20990
#        36365
#        52262
#        75922
#        101705
#        118382
#        148097
#        171065
#        189367
#        207500
#        233230
#        245957
#        265592
#        286420
#
# Disc length: 4033 seconds
#
# Revision: 12
# Processed by: cddbd v1.5.2PL0 Copyright (c) Steve Scherf et al.
# Submitted via: ExactAudioCopy v0.95b4
#
DISCID=e70fbf0f
DTITLE=The Tea Party - Tangents: The Tea Party Collection
DYEAR=2000
DGENRE=Rock
TTITLE0=Walking Wounded
TTITLE1=Temptation
TTITLE2=The Messenger
TTITLE3=Psychopomp
TTITLE4=Sister Awake
TTITLE5=The Bazaar
TTITLE6=Save Me [Remix]
TTITLE7=Fire in the Head
TTITLE8=Release
TTITLE9=Heaven Coming Down
TTITLE10=The River [Remix]
TTITLE11=Babylon
TTITLE12=Waiting on a Sign
TTITLE13=Lifeline
TTITLE14=Paint It Black
EXTD=
EXTT0=
EXTT1=
EXTT2=
EXTT3=
EXTT4=
EXTT5=
EXTT6=
EXTT7=
EXTT8=
EXTT9=
EXTT10=
EXTT11=
EXTT12=
EXTT13=
EXTT14=
PLAYORDER=
